<svg width="88" height="19" viewBox="0 0 88 19" fill="none" xmlns="http://www.w3.org/2000/svg">
<path d="M0.992 18V1.2H4.208L11.36 13.056H9.656L16.688 1.2H19.88L19.928 18H16.28L16.256 6.792H16.928L11.312 16.224H9.56L3.824 6.792H4.64V18H0.992ZM31.5699 18V15.48L31.3299 14.928V10.416C31.3299 9.616 31.0819 8.992 30.5859 8.544C30.1059 8.096 29.3619 7.872 28.3539 7.872C27.6659 7.872 26.9859 7.984 26.3139 8.208C25.6579 8.416 25.0979 8.704 24.6339 9.072L23.2899 6.456C23.9939 5.96 24.8419 5.576 25.8339 5.304C26.8259 5.032 27.8339 4.896 28.8579 4.896C30.8259 4.896 32.3539 5.36 33.4419 6.288C34.5299 7.216 35.0739 8.664 35.0739 10.632V18H31.5699ZM27.6339 18.192C26.6259 18.192 25.7619 18.024 25.0419 17.688C24.3219 17.336 23.7699 16.864 23.3859 16.272C23.0019 15.68 22.8099 15.016 22.8099 14.28C22.8099 13.512 22.9939 12.84 23.3619 12.264C23.7459 11.688 24.3459 11.24 25.1619 10.92C25.9779 10.584 27.0419 10.416 28.3539 10.416H31.7859V12.6H28.7619C27.8819 12.6 27.2739 12.744 26.9379 13.032C26.6179 13.32 26.4579 13.68 26.4579 14.112C26.4579 14.592 26.6419 14.976 27.0099 15.264C27.3939 15.536 27.9139 15.672 28.5699 15.672C29.1939 15.672 29.7539 15.528 30.2499 15.24C30.7459 14.936 31.1059 14.496 31.3299 13.92L31.9059 15.648C31.6339 16.48 31.1379 17.112 30.4179 17.544C29.6979 17.976 28.7699 18.192 27.6339 18.192ZM38.4624 18V5.088H42.0384V8.736L41.5344 7.68C41.9184 6.768 42.5344 6.08 43.3824 5.616C44.2304 5.136 45.2624 4.896 46.4784 4.896V8.352C46.3184 8.336 46.1744 8.328 46.0464 8.328C45.9184 8.312 45.7824 8.304 45.6384 8.304C44.6144 8.304 43.7824 8.6 43.1424 9.192C42.5184 9.768 42.2064 10.672 42.2064 11.904V18H38.4624ZM51.824 15.36L51.92 10.8L57.944 5.088H62.408L56.624 10.968L54.68 12.552L51.824 15.36ZM48.728 18V0.191999H52.472V18H48.728ZM58.352 18L53.984 12.576L56.336 9.672L62.888 18H58.352ZM70.4407 18.192C68.9687 18.192 67.6727 17.904 66.5527 17.328C65.4487 16.752 64.5927 15.968 63.9847 14.976C63.3767 13.968 63.0727 12.824 63.0727 11.544C63.0727 10.248 63.3687 9.104 63.9607 8.112C64.5687 7.104 65.3927 6.32 66.4327 5.76C67.4727 5.184 68.6487 4.896 69.9607 4.896C71.2247 4.896 72.3607 5.168 73.3687 5.712C74.3927 6.24 75.2007 7.008 75.7927 8.016C76.3847 9.008 76.6807 10.2 76.6807 11.592C76.6807 11.736 76.6727 11.904 76.6567 12.096C76.6407 12.272 76.6247 12.44 76.6087 12.6H66.1207V10.416H74.6407L73.2007 11.064C73.2007 10.392 73.0647 9.808 72.7927 9.312C72.5207 8.816 72.1447 8.432 71.6647 8.16C71.1847 7.872 70.6247 7.728 69.9847 7.728C69.3447 7.728 68.7767 7.872 68.2807 8.16C67.8007 8.432 67.4247 8.824 67.1527 9.336C66.8807 9.832 66.7447 10.424 66.7447 11.112V11.688C66.7447 12.392 66.8967 13.016 67.2007 13.56C67.5207 14.088 67.9607 14.496 68.5207 14.784C69.0967 15.056 69.7687 15.192 70.5367 15.192C71.2247 15.192 71.8247 15.088 72.3367 14.88C72.8647 14.672 73.3447 14.36 73.7767 13.944L75.7687 16.104C75.1767 16.776 74.4327 17.296 73.5367 17.664C72.6407 18.016 71.6087 18.192 70.4407 18.192ZM84.4533 18.192C82.9333 18.192 81.7493 17.808 80.9013 17.04C80.0533 16.256 79.6293 15.096 79.6293 13.56V2.232H83.3733V13.512C83.3733 14.056 83.5173 14.48 83.8053 14.784C84.0933 15.072 84.4853 15.216 84.9813 15.216C85.5733 15.216 86.0773 15.056 86.4933 14.736L87.5013 17.376C87.1173 17.648 86.6533 17.856 86.1093 18C85.5813 18.128 85.0293 18.192 84.4533 18.192ZM77.6373 8.256V5.376H86.5893V8.256H77.6373Z" fill="white"/>
</svg>
