<svg width="59" height="28" viewBox="0 0 59 28" fill="none" xmlns="http://www.w3.org/2000/svg">
<rect width="59" height="28" rx="14" fill="#17161C"/>
<ellipse cx="14.5" cy="14" rx="11.5" ry="11" fill="white"/>
<path fill-rule="evenodd" clip-rule="evenodd" d="M38.6089 19.5291C43.3608 19.5291 47.2131 15.6769 47.2131 10.9249C47.2131 8.85219 46.4801 6.95063 45.2593 5.46527C48.3349 6.77701 50.4908 9.82838 50.4908 13.3833C50.4908 18.1352 46.6386 21.9874 41.8866 21.9874C39.2074 21.9874 36.8142 20.7629 35.2362 18.8429C36.2719 19.2847 37.4118 19.5291 38.6089 19.5291Z" fill="white"/>
<path d="M39.838 8.87637L40.5019 10.6707L42.2963 11.3347L40.5019 11.9987L39.838 13.793L39.174 11.9987L37.3796 11.3347L39.174 10.6707L39.838 8.87637Z" fill="white"/>
<path d="M42.5012 13.3833L42.8885 14.43L43.9352 14.8173L42.8885 15.2046L42.5012 16.2514L42.1138 15.2046L41.0671 14.8173L42.1138 14.43L42.5012 13.3833Z" fill="white"/>
</svg>
