<svg width="59" height="28" viewBox="0 0 59 28" fill="none" xmlns="http://www.w3.org/2000/svg">
<rect width="59" height="28" rx="14" fill="#C2C2C2"/>
<ellipse cx="43.5" cy="14" rx="11.5" ry="11" fill="white"/>
<path d="M15 4L16.6034 7.49469L19.6472 5.14544L19.4429 8.98498L23.2298 8.31935L21.2646 11.6241L24.9271 12.7946L21.6511 14.8076L24.3502 17.546L20.514 17.806L21.6312 21.4851L18.1136 19.9326L17.3932 23.7094L15 20.7L12.6068 23.7094L11.8864 19.9326L8.36877 21.4851L9.48601 17.806L5.64984 17.546L8.34885 14.8076L5.07291 12.7946L8.73539 11.6241L6.77016 8.31935L10.5571 8.98498L10.3528 5.14544L13.3966 7.49469L15 4Z" fill="white"/>
<path d="M20 14C20 16.7614 17.7614 19 15 19C12.2386 19 10 16.7614 10 14C10 11.2386 12.2386 9 15 9C17.7614 9 20 11.2386 20 14Z" fill="white"/>
<path fill-rule="evenodd" clip-rule="evenodd" d="M15 18.0909C17.2593 18.0909 19.0909 16.2593 19.0909 14C19.0909 11.7407 17.2593 9.90909 15 9.90909C12.7407 9.90909 10.9091 11.7407 10.9091 14C10.9091 16.2593 12.7407 18.0909 15 18.0909ZM15 19C17.7614 19 20 16.7614 20 14C20 11.2386 17.7614 9 15 9C12.2386 9 10 11.2386 10 14C10 16.7614 12.2386 19 15 19Z" fill="#C2C2C2"/>
</svg>
